G04 ================== begin FILE IDENTIFICATION RECORD ==================*
G04 Layout Name:  MODULATION_CHOISUWON1.brd*
G04 Film Name:    design*
G04 File Format:  Gerber RS274X*
G04 File Origin:  Cadence Allegro 17.2-P019*
G04 Origin Date:  Tue Jul 30 16:00:33 2019*
G04 *
G04 Layer:  VIA CLASS/BOTTOM*
G04 Layer:  VIA CLASS/TOP*
G04 Layer:  ROUTE KEEPOUT/ALL*
G04 Layer:  ROUTE KEEPIN/ALL*
G04 Layer:  REF DES/SILKSCREEN_TOP*
G04 Layer:  REF DES/SILKSCREEN_BOTTOM*
G04 Layer:  PIN/BOTTOM*
G04 Layer:  PIN/TOP*
G04 Layer:  PACKAGE KEEPOUT/ALL*
G04 Layer:  PACKAGE KEEPIN/ALL*
G04 Layer:  PACKAGE GEOMETRY/PIN_NUMBER*
G04 Layer:  PACKAGE GEOMETRY/SILKSCREEN_TOP*
G04 Layer:  PACKAGE GEOMETRY/SILKSCREEN_BOTTOM*
G04 Layer:  PACKAGE GEOMETRY/SOLDERMASK_TOP*
G04 Layer:  PACKAGE GEOMETRY/SOLDERMASK_BOTTOM*
G04 Layer:  PACKAGE GEOMETRY/PASTEMASK_TOP*
G04 Layer:  PACKAGE GEOMETRY/PASTEMASK_BOTTOM*
G04 Layer:  ETCH/BOTTOM*
G04 Layer:  ETCH/TOP*
G04 Layer:  BOARD GEOMETRY/OUTLINE*
G04 Layer:  BOARD GEOMETRY/SILKSCREEN_TOP*
G04 Layer:  BOARD GEOMETRY/SILKSCREEN_BOTTOM*
G04 Layer:  BOARD GEOMETRY/SOLDERMASK_TOP*
G04 Layer:  BOARD GEOMETRY/SOLDERMASK_BOTTOM*
G04 Layer:  BOARD GEOMETRY/DESIGN_OUTLINE*
G04 *
G04 Offset:    (0.000 0.000)*
G04 Mirror:    No*
G04 Mode:      Positive*
G04 Rotation:  0*
G04 FullContactRelief:  No*
G04 UndefLineWidth:     0.000*
G04 ================== end FILE IDENTIFICATION RECORD ====================*
%FSLAX25Y25*MOMM*%
%IR0*IPPOS*OFA0.00000B0.00000*MIA0B0*SFA1.00000B1.00000*%
%ADD11C,1.524*%
%ADD13C,1.651*%
%ADD12R,1.524X1.524*%
%ADD15O,1.016X1.524*%
%ADD14R,1.016X1.524*%
%ADD10C,.635*%
%ADD16C,1.*%
%ADD17C,.4*%
%ADD18C,.203*%
%ADD19C,.5*%
%ADD21C,2.528*%
%ADD20C,2.656*%
G75*
%LPD*%
G75*
G36*
G01X754200Y444500D02*
Y754200D01*
X444500D01*
Y2109100D01*
G02X458100Y2118800I10213J64D01*
G03X577100Y2137800I41982J119217D01*
G01X693100D01*
X925700Y2370400D01*
Y2879500D01*
X1438500Y3392300D01*
X1510400D01*
G03X1634000Y3610000I77088J100170D01*
G02Y3629000I3796J9500D01*
G03Y3864000I-46500J117500D01*
G02Y3883000I3796J9500D01*
G03X1652100Y4109100I-46528J117499D01*
G02X1657300Y4128100I5194J8790D01*
G01X1663700D01*
G03X1713900Y4178300I0J50200D01*
G01Y4330700D01*
G03X1663700Y4380900I-50200J0D01*
G01X1511300D01*
G03X1467200Y4354700I0J-50215D01*
G01X1355600D01*
X461900Y3461000D01*
G02X444500Y3468200I-7202J7220D01*
G01Y3863100D01*
G02X458100Y3872800I10213J64D01*
G03X546500Y4109500I41903J119208D01*
G02Y4128500I3796J9500D01*
G03X625400Y4262200I-46467J117552D01*
G01X625000Y4264700D01*
X793600Y4433300D01*
X2064400D01*
X2224500Y4273200D01*
X2224100Y4270700D01*
G03X2303000Y4137000I125367J-16148D01*
G02Y4118000I-3796J-9500D01*
G03Y3883000I46500J-117500D01*
G02Y3864000I-3796J-9500D01*
G03Y3629000I46500J-117500D01*
G02Y3610000I-3796J-9500D01*
G03X2396000I46500J-117500D01*
G02Y3629000I3796J9500D01*
G03Y3864000I-46500J117500D01*
G02Y3883000I3796J9500D01*
G03Y4118000I-46500J117500D01*
G02Y4137000I3796J9500D01*
G03X2333300Y4379900I-46498J117540D01*
G01X2330800Y4379500D01*
X2126600Y4583700D01*
X731400D01*
X643800Y4496100D01*
G02X626400Y4503100I-7206J7212D01*
G03X458100Y4619200I-126357J-3134D01*
G02X444500Y4628900I-3387J9636D01*
G01Y6245800D01*
X754200D01*
Y6540500D01*
X9245800D01*
Y6245800D01*
X9525000D01*
Y5784200D01*
G02X9511000Y5774700I-10206J-25D01*
G03X9483200Y5520500I-49527J-123204D01*
G01X9485700Y5520900D01*
X9513300Y5493400D01*
Y4772300D01*
G02X9500100Y4762600I-10186J30D01*
G03Y4508400I-38600J-127100D01*
G02X9513300Y4498700I3014J-9730D01*
G01Y3305100D01*
G02X9500000Y3295400I-10195J11D01*
G03X9415000Y3057500I-38366J-120427D01*
G02Y3038500I-3796J-9500D01*
G03X9510800Y2804600I46508J-117520D01*
G02X9525000Y2795200I4006J-9373D01*
G01Y754200D01*
X9245800D01*
Y444500D01*
X754200D01*
G37*
%LPC*%
G75*
G36*
G01X5312300Y5330000D02*
X5309800Y5330400D01*
X5282200Y5302900D01*
Y4158600D01*
X5309800Y4131100D01*
X5312300Y4131500D01*
G02X5203000Y4022200I21700J-131000D01*
G01X5203400Y4024700D01*
X5131800Y4096400D01*
Y5365100D01*
X5203400Y5436800D01*
X5203000Y5439300D01*
G02X5312300Y5330000I131000J21700D01*
G37*
G36*
G01X5471000Y2365500D02*
Y2500200D01*
X5385800Y2585400D01*
Y2602000D01*
G03X5371800Y2611400I-10184J-43D01*
G02X5233000Y2705100I-37773J93700D01*
G01Y2755900D01*
G02X5397500Y2834400I100980J0D01*
G02X5506200Y2846200I63513J-78509D01*
G02X5537200Y2856900I31000J-39557D01*
G01X5638800D01*
G02X5689000Y2806700I0J-50200D01*
G01Y2654300D01*
G02X5638800Y2604100I-50200J0D01*
G01X5604400D01*
G03X5597200Y2586700I-12J-10185D01*
G01X5621400Y2562400D01*
Y2276600D01*
X5591600Y2246700D01*
X5592000Y2244200D01*
G02X5460800Y2355300I-131011J-21695D01*
G03X5471000Y2365500I3J10197D01*
G37*
G36*
G01X3961200Y1400600D02*
X3988800Y1428100D01*
Y2572400D01*
X3961200Y2599900D01*
X3958700Y2599500D01*
G02X4068000Y2708800I-21700J131000D01*
G01X4067600Y2706300D01*
X4139200Y2634600D01*
Y1365900D01*
X4067600Y1294200D01*
X4068000Y1291700D01*
G02X3958700Y1401000I-131000J-21700D01*
G01X3961200Y1400600D01*
G37*
G36*
G01X8234900Y1247300D02*
G03X8220200Y1247100I-7253J-7204D01*
G02X8229600Y1408700I-92207J86437D01*
G01X8286100D01*
X8457200Y1237600D01*
Y1181100D01*
G02X8295600Y1171700I-75163J-101607D01*
G03X8295800Y1186400I-7004J7447D01*
G01X8234900Y1247300D01*
G37*
G36*
G01X6501200Y1210100D02*
X6528800Y1237600D01*
Y2064400D01*
X6501200Y2091900D01*
X6498700Y2091500D01*
G02X6608000Y2200800I-21700J131000D01*
G01X6607600Y2198300D01*
X6679200Y2126600D01*
Y1175400D01*
X6607600Y1103700D01*
X6608000Y1101200D01*
G02X6498700Y1210500I-131000J-21700D01*
G01X6501200Y1210100D01*
G37*
G36*
G01X3221500Y3864000D02*
G02X3128500I-46500J-117500D01*
G03Y3883000I-3796J9500D01*
G02X3221500I46500J117500D01*
G03Y3864000I3796J-9500D01*
G37*
G36*
G01X7095000Y3610000D02*
G02X7002000I-46500J-117500D01*
G03Y3629000I-3796J9500D01*
G02X6946900Y3671300I46451J117544D01*
G01X6890400D01*
X6592300Y3969400D01*
Y5239400D01*
X6461400Y5370300D01*
G03X6446800Y5370000I-7154J-7255D01*
G02X6459500Y5536200I-96781J90981D01*
G01X6508100D01*
X6742700Y5301600D01*
Y4031600D01*
X6941600Y3832700D01*
G03X6956300Y3832900I7253J7204D01*
G02X7002000Y3864000I92228J-86397D01*
G03Y3883000I-3796J9500D01*
G02Y4118000I46500J117500D01*
G03Y4137000I-3796J9500D01*
G02X7095000I46500J117500D01*
G03Y4118000I3796J-9500D01*
G02Y3883000I-46500J-117500D01*
G03Y3864000I3796J-9500D01*
G02Y3629000I-46500J-117500D01*
G03Y3610000I3796J-9500D01*
G37*
G36*
G01X6333000D02*
G02X6240000I-46500J-117500D01*
G03Y3629000I-3796J9500D01*
G02Y3864000I46500J117500D01*
G03Y3883000I-3796J9500D01*
G02X6221900Y4109100I46528J117499D01*
G03X6216700Y4128100I-5194J8790D01*
G01X6210300D01*
G02X6160100Y4178300I0J50200D01*
G01Y4330700D01*
G02X6210300Y4380900I50200J0D01*
G01X6362700D01*
G02X6412900Y4330700I0J-50200D01*
G01Y4178300D01*
G02X6362700Y4128100I-50200J0D01*
G01X6356300D01*
G03X6351100Y4109100I-6J-10210D01*
G02X6333000Y3883000I-64628J-108601D01*
G03Y3864000I3796J-9500D01*
G02Y3629000I-46500J-117500D01*
G03Y3610000I3796J-9500D01*
G37*
G36*
G01X8047500Y3356000D02*
G02X7954500I-46500J-117500D01*
G03Y3375000I-3796J9500D01*
G02Y3610000I46500J117500D01*
G03Y3629000I-3796J9500D01*
G02X7936400Y3855100I46528J117499D01*
G03X7931200Y3874100I-5194J8790D01*
G01X7924800D01*
G02X7874600Y3924300I0J50200D01*
G01Y4076700D01*
G02X7924800Y4126900I50200J0D01*
G01X8077200D01*
G02X8127400Y4076700I0J-50200D01*
G01Y3924300D01*
G02X8077200Y3874100I-50200J0D01*
G01X8070800D01*
G03X8065600Y3855100I-6J-10210D01*
G02X8047500Y3629000I-64628J-108601D01*
G03Y3610000I3796J-9500D01*
G02Y3375000I-46500J-117500D01*
G03Y3356000I3796J-9500D01*
G37*
G36*
G01X4364500Y2086000D02*
G02X4271500I-46500J-117500D01*
G03Y2105000I-3796J9500D01*
G02X4364500I46500J117500D01*
G03Y2086000I3796J-9500D01*
G37*
G36*
G01X2332500D02*
G02X2239500I-46500J-117500D01*
G03Y2105000I-3796J9500D01*
G02Y2340000I46500J117500D01*
G03Y2359000I-3796J9500D01*
G02Y2594000I46500J117500D01*
G03Y2613000I-3796J9500D01*
G02X2332500I46500J117500D01*
G03Y2594000I3796J-9500D01*
G02Y2359000I-46500J-117500D01*
G03Y2340000I3796J-9500D01*
G02Y2105000I-46500J-117500D01*
G03Y2086000I3796J-9500D01*
G37*
G36*
G01X1570500D02*
G02X1477500I-46500J-117500D01*
G03Y2105000I-3796J9500D01*
G02Y2340000I46500J117500D01*
G03Y2359000I-3796J9500D01*
G02X1459400Y2585100I46528J117499D01*
G03X1454200Y2604100I-5194J8790D01*
G01X1447800D01*
G02X1397600Y2654300I0J50200D01*
G01Y2806700D01*
G02X1447800Y2856900I50200J0D01*
G01X1600200D01*
G02X1650400Y2806700I0J-50200D01*
G01Y2654300D01*
G02X1600200Y2604100I-50200J0D01*
G01X1593800D01*
G03X1588600Y2585100I-6J-10210D01*
G02X1570500Y2359000I-64628J-108601D01*
G03Y2340000I3796J-9500D01*
G02Y2105000I-46500J-117500D01*
G03Y2086000I3796J-9500D01*
G37*
G36*
G01X7158500Y1832000D02*
G02X7065500I-46500J-117500D01*
G03Y1851000I-3796J9500D01*
G02Y2086000I46500J117500D01*
G03Y2105000I-3796J9500D01*
G02X7047400Y2331100I46528J117499D01*
G03X7042200Y2350100I-5194J8790D01*
G01X7035800D01*
G02X6985600Y2400300I0J50200D01*
G01Y2552700D01*
G02X7035800Y2602900I50200J0D01*
G01X7188200D01*
G02X7238400Y2552700I0J-50200D01*
G01Y2400300D01*
G02X7188200Y2350100I-50200J0D01*
G01X7181800D01*
G03X7176600Y2331100I-6J-10210D01*
G02X7158500Y2105000I-64628J-108601D01*
G03Y2086000I3796J-9500D01*
G02Y1851000I-46500J-117500D01*
G03Y1832000I3796J-9500D01*
G37*
G36*
G01X3221500D02*
G02X3128500I-46500J-117500D01*
G03Y1851000I-3796J9500D01*
G02X3221500I46500J117500D01*
G03Y1832000I3796J-9500D01*
G37*
G36*
G01X7855300Y1204500D02*
X7857800Y1204900D01*
G02X7748600Y1095700I16200J-125400D01*
G01X7749000Y1098200D01*
X7608300Y1238900D01*
Y1809100D01*
X7749000Y1949800D01*
X7748600Y1952300D01*
G02Y1984700I125400J16200D01*
G01X7749000Y1987200D01*
X7544800Y2191400D01*
Y2381800D01*
X7207800Y2718800D01*
X6122400D01*
X5512800Y3328400D01*
Y3383000D01*
G02X5676100Y3393100I75191J109487D01*
G03X5675600Y3378200I6710J-7684D01*
G01X6184600Y2869200D01*
X7270000D01*
X7695200Y2444000D01*
Y2253600D01*
X7730200Y2218600D01*
G03X7747600Y2225600I7206J7212D01*
G02X7827500Y2340000I126362J-3153D01*
G03Y2359000I-3796J9500D01*
G02X7920500I46500J117500D01*
G03Y2340000I3796J-9500D01*
G02X7951100Y2322700I-46303J-117612D01*
G01X8022900D01*
X8281800Y2581600D01*
Y3597400D01*
X8531100Y3846700D01*
X8685900D01*
G02X8716500Y3864000I76903J-100312D01*
G03Y3883000I-3796J9500D01*
G02X8809500I46500J117500D01*
G03Y3864000I3796J-9500D01*
G02X8889400Y3749600I-46462J-117553D01*
G03X8906800Y3742600I10194J212D01*
G01X8941800Y3777600D01*
Y4350400D01*
X8783100Y4509100D01*
X8686800D01*
G02X8636600Y4559300I0J50200D01*
G01Y4711700D01*
G02X8686800Y4761900I50200J0D01*
G01X8839200D01*
G02X8889400Y4711700I0J-50200D01*
G01Y4615400D01*
X9092200Y4412600D01*
Y3715400D01*
X8888000Y3511200D01*
X8888400Y3508700D01*
G02X8809500Y3375000I-125367J-16148D01*
G03Y3356000I3796J-9500D01*
G02X8716500I-46500J-117500D01*
G03Y3375000I-3796J9500D01*
G02Y3610000I46500J117500D01*
G03Y3629000I-3796J9500D01*
G02X8685900Y3646300I46303J117612D01*
G01X8614100D01*
X8482200Y3514400D01*
Y2498600D01*
X8105900Y2122300D01*
X7951100D01*
G02X7920500Y2105000I-76903J100312D01*
G03Y2086000I3796J-9500D01*
G02Y1851000I-46500J-117500D01*
G03Y1832000I3796J-9500D01*
G02X7776700Y1633800I-46501J-117527D01*
G03X7758700Y1627300I-7807J-6554D01*
G01Y1301100D01*
X7855300Y1204500D01*
G37*
G54D21*
X4381500Y2730500D03*
X4889500D03*
X4635500Y2984500D03*
X8763000Y5626100D03*
G54D20*
X2921000Y1270000D03*
Y2730500D03*
Y3492500D03*
X3937000D03*
X4572000D03*
X4318000Y4000500D03*
X7493000Y1079500D03*
%LPD*%
G75*
G36*
G01X246000Y246000D02*
Y754000D01*
X754000D01*
Y246000D01*
X246000D01*
G37*
G36*
G01Y6246000D02*
Y6754000D01*
X754000D01*
Y6246000D01*
X246000D01*
G37*
G36*
G01X9246000Y246000D02*
Y754000D01*
X9754000D01*
Y246000D01*
X9246000D01*
G37*
G36*
G01Y6246000D02*
Y6754000D01*
X9754000D01*
Y6246000D01*
X9246000D01*
G37*
G54D10*
X500000Y500000D03*
D03*
Y6500000D03*
D03*
X9500000Y500000D03*
D03*
Y6500000D03*
D03*
G54D11*
X500000Y2238000D03*
D03*
Y2492000D03*
D03*
Y2746000D03*
D03*
Y3000000D03*
D03*
Y3992000D03*
D03*
Y4246000D03*
D03*
Y4500000D03*
D03*
X1524000Y1968500D03*
D03*
Y2222500D03*
D03*
Y2476500D03*
D03*
X1587500Y3492500D03*
D03*
Y3746500D03*
D03*
Y4000500D03*
D03*
X2286000Y1968500D03*
D03*
Y2222500D03*
D03*
Y2476500D03*
D03*
Y2730500D03*
D03*
X2349500Y3492500D03*
D03*
Y3746500D03*
D03*
Y4000500D03*
D03*
Y4254500D03*
D03*
X3175000Y1968500D03*
D03*
Y1714500D03*
D03*
Y3746500D03*
D03*
Y4000500D03*
D03*
X4318000Y1968500D03*
D03*
X4381500Y2730500D03*
D03*
X4889500D03*
D03*
X4318000Y2222500D03*
D03*
X4635500Y2984500D03*
D03*
X6286500Y3492500D03*
D03*
Y3746500D03*
D03*
Y4000500D03*
D03*
X7112000Y1714500D03*
D03*
Y1968500D03*
D03*
Y2222500D03*
D03*
X7048500Y3492500D03*
D03*
Y3746500D03*
D03*
Y4000500D03*
D03*
Y4254500D03*
D03*
X7874000Y1079500D03*
D03*
Y1714500D03*
D03*
Y1968500D03*
D03*
Y2222500D03*
D03*
Y2476500D03*
D03*
X8001000Y3238500D03*
D03*
Y3492500D03*
D03*
Y3746500D03*
D03*
X8382000Y1079500D03*
D03*
X8128000Y1333500D03*
D03*
X8763000Y3238500D03*
D03*
Y3492500D03*
D03*
Y3746500D03*
D03*
Y4000500D03*
D03*
Y5626100D03*
D03*
X9461500Y3175000D03*
D03*
Y2921000D03*
D03*
G54D12*
X1524000Y2730500D03*
D03*
X1587500Y4254500D03*
D03*
X6286500D03*
D03*
X7112000Y2476500D03*
D03*
X8001000Y4000500D03*
D03*
X8763000Y4635500D03*
D03*
G54D13*
X2921000Y1270000D03*
D03*
Y2730500D03*
D03*
Y3492500D03*
D03*
X3937000Y1270000D03*
D03*
Y2730500D03*
D03*
Y3492500D03*
D03*
X4572000D03*
D03*
X4318000Y4000500D03*
D03*
X5461000Y2222500D03*
D03*
X5588000Y3492500D03*
D03*
X5334000Y4000500D03*
D03*
Y5461000D03*
D03*
X6477000Y1079500D03*
D03*
Y2222500D03*
D03*
X6350000Y5461000D03*
D03*
X7493000Y1079500D03*
D03*
X9461500Y4635500D03*
D03*
Y5651500D03*
D03*
G54D14*
X5588000Y2730500D03*
D03*
G54D15*
X5461000D03*
D03*
X5334000D03*
D03*
G54D16*
G01X500000Y2492000D02*
X611500Y2603500D01*
X1397000D01*
X1524000Y2730500D01*
G01X500000Y2238000D02*
X651600D01*
X825500Y2411900D01*
Y2921000D01*
X1397000Y3492500D01*
X1587500D01*
G01X500000Y3000000D02*
Y3357400D01*
X1397100Y4254500D01*
X1587500D01*
G01X2286000Y2730500D02*
X2095500Y2921000D01*
X675000D01*
X500000Y2746000D01*
G01X6286500Y3492500D02*
X6096000Y3302000D01*
X1778000D01*
X1587500Y3492500D01*
G01Y4254500D02*
X2032000Y4699000D01*
X7040100D01*
X7413800Y4325300D01*
Y4183700D01*
G01X2286000Y2730500D02*
X2476500Y2921000D01*
X2730500D01*
X2921000Y2730500D01*
G01X4381500D02*
X4191000Y2921000D01*
X3111500D01*
X2921000Y2730500D01*
G01X4381500D02*
X4635500Y2984500D01*
G01X8001000Y3238500D02*
X6540500D01*
X6286500Y3492500D01*
G01X8001000Y3238500D02*
Y3048000D01*
X7366000Y2413000D01*
Y1968500D01*
X7112000Y1714500D01*
G01X7413800Y4183700D02*
X7230600Y4000500D01*
X7048500D01*
G01X8763000Y3746500D02*
X8572600D01*
X8382000Y3555900D01*
Y2540100D01*
X8064400Y2222500D01*
X7874000D01*
G01X8763000Y3746500D02*
X8914600D01*
X9080600Y3912500D01*
Y4063900D01*
X8960800Y4183700D01*
X7413800D01*
G54D17*
G01X2636300Y6032500D02*
Y6432500D01*
X2716300D01*
X2743000Y6412500D01*
X2763000Y6365800D01*
X2769700Y6312500D01*
X2763000Y6259200D01*
X2746300Y6219200D01*
X2716300Y6199200D01*
X2636300D01*
G01X2929700Y6432500D02*
Y6145800D01*
X2943000Y6085800D01*
X2969700Y6045800D01*
X3003000Y6032500D01*
X3036300Y6045800D01*
X3063000Y6085800D01*
X3076300Y6145800D01*
Y6432500D01*
G01X3236300D02*
Y6032500D01*
X3369700D01*
G01X3533000Y6085800D02*
X3559700Y6052500D01*
X3589700Y6032500D01*
X3616300D01*
X3643000Y6052500D01*
X3663000Y6085800D01*
X3673000Y6132500D01*
X3666300Y6179200D01*
X3649700Y6219200D01*
X3619700Y6245800D01*
X3579700Y6259200D01*
X3556300Y6285800D01*
X3546300Y6332500D01*
X3553000Y6379200D01*
X3569700Y6412500D01*
X3593000Y6432500D01*
X3616300D01*
X3639700Y6419200D01*
X3659700Y6385800D01*
G01X3969700Y6032500D02*
X3836300D01*
Y6432500D01*
X3969700D01*
G01X3916300Y6239200D02*
X3836300D01*
G01X4416300Y6032500D02*
Y6432500D01*
X4503000Y6099200D01*
X4589700Y6432500D01*
Y6032500D01*
G01X4803000D02*
X4776300Y6039200D01*
X4753000Y6065800D01*
X4733000Y6105800D01*
X4719700Y6152500D01*
X4713000Y6205800D01*
Y6259200D01*
X4719700Y6312500D01*
X4733000Y6359200D01*
X4753000Y6399200D01*
X4776300Y6425800D01*
X4803000Y6432500D01*
X4829700Y6425800D01*
X4853000Y6399200D01*
X4873000Y6359200D01*
X4886300Y6312500D01*
X4893000Y6259200D01*
Y6205800D01*
X4886300Y6152500D01*
X4873000Y6105800D01*
X4853000Y6065800D01*
X4829700Y6039200D01*
X4803000Y6032500D01*
G01X5029700D02*
Y6432500D01*
X5096300D01*
X5123000Y6412500D01*
X5143000Y6385800D01*
X5159700Y6345800D01*
X5173000Y6299200D01*
X5176300Y6232500D01*
X5173000Y6165800D01*
X5159700Y6119200D01*
X5143000Y6079200D01*
X5123000Y6052500D01*
X5096300Y6032500D01*
X5029700D01*
G01X5329700Y6432500D02*
Y6145800D01*
X5343000Y6085800D01*
X5369700Y6045800D01*
X5403000Y6032500D01*
X5436300Y6045800D01*
X5463000Y6085800D01*
X5476300Y6145800D01*
Y6432500D01*
G01X5636300D02*
Y6032500D01*
X5769700D01*
G01X5919700D02*
X6003000Y6432500D01*
X6086300Y6032500D01*
G01X6056300Y6172500D02*
X5949700D01*
G01X6303000Y6432500D02*
Y6032500D01*
G01X6226300Y6432500D02*
X6379700D01*
G01X6603000Y6032500D02*
X6576300Y6039200D01*
X6553000Y6065800D01*
X6533000Y6105800D01*
X6519700Y6152500D01*
X6513000Y6205800D01*
Y6259200D01*
X6519700Y6312500D01*
X6533000Y6359200D01*
X6553000Y6399200D01*
X6576300Y6425800D01*
X6603000Y6432500D01*
X6629700Y6425800D01*
X6653000Y6399200D01*
X6673000Y6359200D01*
X6686300Y6312500D01*
X6693000Y6259200D01*
Y6205800D01*
X6686300Y6152500D01*
X6673000Y6105800D01*
X6653000Y6065800D01*
X6629700Y6039200D01*
X6603000Y6032500D01*
G01X6863000Y6432500D02*
X6943000D01*
G01X6903000D02*
Y6032500D01*
G01X6863000D02*
X6943000D01*
G01X7126300D02*
Y6432500D01*
X7279700Y6032500D01*
Y6432500D01*
G01X3116700Y500000D02*
X2983300D01*
Y900000D01*
X3116700D01*
G01X3063300Y706700D02*
X2983300D01*
G01X3350000Y500000D02*
Y900000D01*
G01X3600000Y680000D02*
X3706700D01*
X3696700Y726700D01*
X3680000Y753300D01*
X3656700Y766700D01*
X3633300Y760000D01*
X3613300Y740000D01*
X3600000Y693300D01*
X3593300Y653300D01*
Y613300D01*
X3600000Y573300D01*
X3616700Y533300D01*
X3636700Y506700D01*
X3660000Y500000D01*
X3683300Y513300D01*
X3706700Y553300D01*
G01X4003300Y733300D02*
X3980000Y760000D01*
X3960000Y766700D01*
X3933300Y753300D01*
X3913300Y726700D01*
X3900000Y680000D01*
X3896700Y633300D01*
X3900000Y586700D01*
X3913300Y546700D01*
X3933300Y513300D01*
X3960000Y500000D01*
X3983300Y513300D01*
X4003300Y540000D01*
G01X4250000Y900000D02*
Y500000D01*
G01X4203300Y766700D02*
X4296700D01*
G01X4503300Y500000D02*
Y766700D01*
G01Y713300D02*
X4520000Y740000D01*
X4536700Y760000D01*
X4560000Y766700D01*
X4576700Y760000D01*
X4596700Y740000D01*
G01X4850000Y500000D02*
X4830000Y506700D01*
X4810000Y533300D01*
X4796700Y580000D01*
X4790000Y633300D01*
X4796700Y686700D01*
X4810000Y733300D01*
X4830000Y760000D01*
X4850000Y766700D01*
X4870000Y760000D01*
X4890000Y733300D01*
X4903300Y686700D01*
X4906700Y633300D01*
X4903300Y580000D01*
X4890000Y533300D01*
X4870000Y506700D01*
X4850000Y500000D01*
G01X5093300D02*
Y766700D01*
G01Y700000D02*
X5106700Y733300D01*
X5126700Y760000D01*
X5153300Y766700D01*
X5176700Y760000D01*
X5196700Y733300D01*
X5206700Y686700D01*
Y500000D01*
G01X5450000Y766700D02*
Y500000D01*
G01Y873300D02*
X5443300Y880000D01*
Y893300D01*
X5450000Y900000D01*
X5456700Y893300D01*
Y880000D01*
X5450000Y873300D01*
G01X5803300Y733300D02*
X5780000Y760000D01*
X5760000Y766700D01*
X5733300Y753300D01*
X5713300Y726700D01*
X5700000Y680000D01*
X5696700Y633300D01*
X5700000Y586700D01*
X5713300Y546700D01*
X5733300Y513300D01*
X5760000Y500000D01*
X5783300Y513300D01*
X5803300Y540000D01*
G01X6423300Y866700D02*
X6403300Y886700D01*
X6380000Y900000D01*
X6353300D01*
X6323300Y880000D01*
X6300000Y846700D01*
X6283300Y806700D01*
X6270000Y740000D01*
X6266700Y680000D01*
X6273300Y620000D01*
X6283300Y580000D01*
X6303300Y540000D01*
X6326700Y513300D01*
X6350000Y500000D01*
X6373300D01*
X6396700Y513300D01*
X6416700Y533300D01*
X6433300Y560000D01*
G01X6566700Y500000D02*
X6650000Y900000D01*
X6733300Y500000D01*
G01X6703300Y640000D02*
X6596700D01*
G01X6876700Y500000D02*
Y900000D01*
X6943300D01*
X6970000Y880000D01*
X6990000Y853300D01*
X7006700Y813300D01*
X7020000Y766700D01*
X7023300Y700000D01*
X7020000Y633300D01*
X7006700Y586700D01*
X6990000Y546700D01*
X6970000Y520000D01*
X6943300Y500000D01*
X6876700D01*
G54D18*
G01X5194600Y2730500D02*
X5214900Y2628600D01*
G01D02*
X5272500Y2542000D01*
G01D02*
X5359100Y2484400D01*
G01D02*
X5461000Y2464100D01*
G01D02*
X5562900Y2484400D01*
G01D02*
X5649500Y2542000D01*
G01D02*
X5707100Y2628600D01*
G01X5649500Y2919000D02*
X5272500D01*
G01D02*
X5214900Y2832400D01*
G01D02*
X5194600Y2730500D01*
G01X5707100Y2832400D02*
X5649500Y2919000D01*
G01D02*
X5647400Y2921000D01*
G01X5707100Y2628600D02*
X5727400Y2730500D01*
G01D02*
X5707100Y2832400D01*
G54D19*
G01X500000Y3860500D02*
Y3992000D01*
G01D02*
X631500D01*
G01X500000Y4500000D02*
X1126500Y3873500D01*
X1460500D01*
X1587500Y3746500D01*
G01X2349500Y4254500D02*
X2095500Y4508500D01*
X762500D01*
X500000Y4246000D01*
G01X1524000Y2730500D02*
Y2862000D01*
G01X1392500Y2730500D02*
X1524000D01*
G01D02*
X1655500D01*
G01X2286000Y1968500D02*
X2413000Y2095500D01*
X3048000D01*
X3175000Y1968500D01*
G01X2286000Y2222500D02*
X2413000Y2349500D01*
G01D02*
X4191000D01*
X4318000Y2222500D01*
G01X2286000Y2476500D02*
X2413000Y2349500D01*
G01X2218000Y4000500D02*
X2349500D01*
G01D02*
X2481000D01*
G01X3175000Y3746500D02*
X3048000Y3873500D01*
X2476500D01*
X2349500Y3746500D01*
G01Y3492500D02*
X2476500Y3619500D01*
X2794000D01*
X2921000Y3492500D01*
G01Y1132100D02*
Y1270000D01*
G01D02*
Y1407900D01*
G01X2783100Y1270000D02*
X2921000D01*
G01D02*
X3058900D01*
G01X3175000Y1583000D02*
Y1714500D01*
G01X3043500D02*
X3175000D01*
G01D02*
X3306500D01*
G01X3175000Y4000500D02*
Y4132000D01*
G01X3043500Y4000500D02*
X3175000D01*
G01D02*
X3306500D01*
G01X3937000Y2730500D02*
X4064000Y2603500D01*
Y1397000D01*
X3937000Y1270000D01*
G01Y2730500D02*
X4127500Y2540000D01*
X5168900D01*
X5334000Y2705100D01*
Y2730500D01*
G01X3937000Y3492500D02*
X4022200Y3577700D01*
X4486800D01*
X4572000Y3492500D01*
G01X4318000Y1837000D02*
Y1968500D01*
G01X4186500D02*
X4318000D01*
G01D02*
X4449500D01*
G01X4318000Y2222500D02*
X4445000Y2349500D01*
X5334000D01*
X5461000Y2222500D01*
G01X4889500Y2730500D02*
X5143500Y2984500D01*
X5461000D01*
X5588000Y2857500D01*
Y2730500D01*
G01X4318000Y3862600D02*
Y4000500D01*
G01D02*
Y4138400D01*
G01X4180100Y4000500D02*
X4318000D01*
G01D02*
X4455900D01*
G01X6286500Y3746500D02*
X4699000D01*
X4572000Y3619500D01*
Y3492500D01*
G01X5461000Y2730500D02*
Y2616500D01*
X5546200Y2531300D01*
Y2307700D01*
X5461000Y2222500D01*
G01X5588000Y3492500D02*
Y3359500D01*
X6153500Y2794000D01*
X7238900D01*
X7620000Y2412900D01*
Y2222500D01*
X7874000Y1968500D01*
G01X6286500Y4000500D02*
X6159500Y4127500D01*
X5461000D01*
X5334000Y4000500D01*
G01Y5461000D02*
X5207000Y5334000D01*
Y4127500D01*
X5334000Y4000500D01*
G01X6350000Y5461000D02*
X6477000D01*
X6667500Y5270500D01*
Y4000500D01*
X6921500Y3746500D01*
X7048500D01*
G01X6477000Y2222500D02*
X6604000Y2095500D01*
Y1206500D01*
X6477000Y1079500D01*
G01Y2222500D02*
X6562200Y2307700D01*
X7026800D01*
X7112000Y2222500D01*
G01X7048500Y3746500D02*
X7175500Y3873500D01*
X7874000D01*
X8001000Y3746500D01*
G01X8382000Y1079500D02*
X8191500Y889000D01*
X7683500D01*
X7493000Y1079500D01*
G01X7874000Y1968500D02*
X7683500Y1778000D01*
Y1270000D01*
X7874000Y1079500D01*
G01X7869500Y3492500D02*
X8001000D01*
G01X8128000Y1333500D02*
X8255000D01*
X8382000Y1206500D01*
Y1079500D01*
G01X8001000Y3492500D02*
X8132500D01*
G01X9461500Y3175000D02*
Y3306500D01*
G01X9330000Y3175000D02*
X9461500D01*
G01Y2921000D02*
X9588500Y3048000D01*
Y4574400D01*
X9594500Y4580400D01*
Y4690600D01*
X9588500Y4696600D01*
Y5524500D01*
X9461500Y5651500D01*
G01X8763000Y3492500D02*
X9017000Y3746500D01*
Y4381500D01*
X8763000Y4635500D01*
G01X9461500Y4497600D02*
Y4635500D01*
G01D02*
Y4773400D01*
G01X9323600Y4635500D02*
X9461500D01*
G01X8763000Y5626100D02*
X8873600Y5736700D01*
X9376300D01*
X9461500Y5651500D01*
M02*
