G04 ================== begin FILE IDENTIFICATION RECORD ==================*
G04 Layout Name:  MODULATION_CHOISUWON1.brd*
G04 Film Name:    skt*
G04 File Format:  Gerber RS274X*
G04 File Origin:  Cadence Allegro 17.2-P019*
G04 Origin Date:  Tue Jul 30 16:00:33 2019*
G04 *
G04 Layer:  REF DES/SILKSCREEN_TOP*
G04 Layer:  PACKAGE GEOMETRY/SILKSCREEN_TOP*
G04 Layer:  BOARD GEOMETRY/SILKSCREEN_TOP*
G04 *
G04 Offset:    (0.000 0.000)*
G04 Mirror:    No*
G04 Mode:      Positive*
G04 Rotation:  0*
G04 FullContactRelief:  No*
G04 UndefLineWidth:     0.200*
G04 ================== end FILE IDENTIFICATION RECORD ====================*
%FSLAX25Y25*MOMM*%
%IR0*IPPOS*OFA0.00000B0.00000*MIA0B0*SFA1.00000B1.00000*%
%ADD10C,.4*%
%ADD11C,.203*%
%ADD12C,.2*%
G75*
%LPD*%
G75*
G54D10*
G01X2636300Y6032500D02*
Y6432500D01*
X2716300D01*
X2743000Y6412500D01*
X2763000Y6365800D01*
X2769700Y6312500D01*
X2763000Y6259200D01*
X2746300Y6219200D01*
X2716300Y6199200D01*
X2636300D01*
G01X2929700Y6432500D02*
Y6145800D01*
X2943000Y6085800D01*
X2969700Y6045800D01*
X3003000Y6032500D01*
X3036300Y6045800D01*
X3063000Y6085800D01*
X3076300Y6145800D01*
Y6432500D01*
G01X3236300D02*
Y6032500D01*
X3369700D01*
G01X3533000Y6085800D02*
X3559700Y6052500D01*
X3589700Y6032500D01*
X3616300D01*
X3643000Y6052500D01*
X3663000Y6085800D01*
X3673000Y6132500D01*
X3666300Y6179200D01*
X3649700Y6219200D01*
X3619700Y6245800D01*
X3579700Y6259200D01*
X3556300Y6285800D01*
X3546300Y6332500D01*
X3553000Y6379200D01*
X3569700Y6412500D01*
X3593000Y6432500D01*
X3616300D01*
X3639700Y6419200D01*
X3659700Y6385800D01*
G01X3969700Y6032500D02*
X3836300D01*
Y6432500D01*
X3969700D01*
G01X3916300Y6239200D02*
X3836300D01*
G01X4416300Y6032500D02*
Y6432500D01*
X4503000Y6099200D01*
X4589700Y6432500D01*
Y6032500D01*
G01X4803000D02*
X4776300Y6039200D01*
X4753000Y6065800D01*
X4733000Y6105800D01*
X4719700Y6152500D01*
X4713000Y6205800D01*
Y6259200D01*
X4719700Y6312500D01*
X4733000Y6359200D01*
X4753000Y6399200D01*
X4776300Y6425800D01*
X4803000Y6432500D01*
X4829700Y6425800D01*
X4853000Y6399200D01*
X4873000Y6359200D01*
X4886300Y6312500D01*
X4893000Y6259200D01*
Y6205800D01*
X4886300Y6152500D01*
X4873000Y6105800D01*
X4853000Y6065800D01*
X4829700Y6039200D01*
X4803000Y6032500D01*
G01X5029700D02*
Y6432500D01*
X5096300D01*
X5123000Y6412500D01*
X5143000Y6385800D01*
X5159700Y6345800D01*
X5173000Y6299200D01*
X5176300Y6232500D01*
X5173000Y6165800D01*
X5159700Y6119200D01*
X5143000Y6079200D01*
X5123000Y6052500D01*
X5096300Y6032500D01*
X5029700D01*
G01X5329700Y6432500D02*
Y6145800D01*
X5343000Y6085800D01*
X5369700Y6045800D01*
X5403000Y6032500D01*
X5436300Y6045800D01*
X5463000Y6085800D01*
X5476300Y6145800D01*
Y6432500D01*
G01X5636300D02*
Y6032500D01*
X5769700D01*
G01X5919700D02*
X6003000Y6432500D01*
X6086300Y6032500D01*
G01X6056300Y6172500D02*
X5949700D01*
G01X6303000Y6432500D02*
Y6032500D01*
G01X6226300Y6432500D02*
X6379700D01*
G01X6603000Y6032500D02*
X6576300Y6039200D01*
X6553000Y6065800D01*
X6533000Y6105800D01*
X6519700Y6152500D01*
X6513000Y6205800D01*
Y6259200D01*
X6519700Y6312500D01*
X6533000Y6359200D01*
X6553000Y6399200D01*
X6576300Y6425800D01*
X6603000Y6432500D01*
X6629700Y6425800D01*
X6653000Y6399200D01*
X6673000Y6359200D01*
X6686300Y6312500D01*
X6693000Y6259200D01*
Y6205800D01*
X6686300Y6152500D01*
X6673000Y6105800D01*
X6653000Y6065800D01*
X6629700Y6039200D01*
X6603000Y6032500D01*
G01X6863000Y6432500D02*
X6943000D01*
G01X6903000D02*
Y6032500D01*
G01X6863000D02*
X6943000D01*
G01X7126300D02*
Y6432500D01*
X7279700Y6032500D01*
Y6432500D01*
G01X3116700Y500000D02*
X2983300D01*
Y900000D01*
X3116700D01*
G01X3063300Y706700D02*
X2983300D01*
G01X3350000Y500000D02*
Y900000D01*
G01X3600000Y680000D02*
X3706700D01*
X3696700Y726700D01*
X3680000Y753300D01*
X3656700Y766700D01*
X3633300Y760000D01*
X3613300Y740000D01*
X3600000Y693300D01*
X3593300Y653300D01*
Y613300D01*
X3600000Y573300D01*
X3616700Y533300D01*
X3636700Y506700D01*
X3660000Y500000D01*
X3683300Y513300D01*
X3706700Y553300D01*
G01X4003300Y733300D02*
X3980000Y760000D01*
X3960000Y766700D01*
X3933300Y753300D01*
X3913300Y726700D01*
X3900000Y680000D01*
X3896700Y633300D01*
X3900000Y586700D01*
X3913300Y546700D01*
X3933300Y513300D01*
X3960000Y500000D01*
X3983300Y513300D01*
X4003300Y540000D01*
G01X4250000Y900000D02*
Y500000D01*
G01X4203300Y766700D02*
X4296700D01*
G01X4503300Y500000D02*
Y766700D01*
G01Y713300D02*
X4520000Y740000D01*
X4536700Y760000D01*
X4560000Y766700D01*
X4576700Y760000D01*
X4596700Y740000D01*
G01X4850000Y500000D02*
X4830000Y506700D01*
X4810000Y533300D01*
X4796700Y580000D01*
X4790000Y633300D01*
X4796700Y686700D01*
X4810000Y733300D01*
X4830000Y760000D01*
X4850000Y766700D01*
X4870000Y760000D01*
X4890000Y733300D01*
X4903300Y686700D01*
X4906700Y633300D01*
X4903300Y580000D01*
X4890000Y533300D01*
X4870000Y506700D01*
X4850000Y500000D01*
G01X5093300D02*
Y766700D01*
G01Y700000D02*
X5106700Y733300D01*
X5126700Y760000D01*
X5153300Y766700D01*
X5176700Y760000D01*
X5196700Y733300D01*
X5206700Y686700D01*
Y500000D01*
G01X5450000Y766700D02*
Y500000D01*
G01Y873300D02*
X5443300Y880000D01*
Y893300D01*
X5450000Y900000D01*
X5456700Y893300D01*
Y880000D01*
X5450000Y873300D01*
G01X5803300Y733300D02*
X5780000Y760000D01*
X5760000Y766700D01*
X5733300Y753300D01*
X5713300Y726700D01*
X5700000Y680000D01*
X5696700Y633300D01*
X5700000Y586700D01*
X5713300Y546700D01*
X5733300Y513300D01*
X5760000Y500000D01*
X5783300Y513300D01*
X5803300Y540000D01*
G01X6423300Y866700D02*
X6403300Y886700D01*
X6380000Y900000D01*
X6353300D01*
X6323300Y880000D01*
X6300000Y846700D01*
X6283300Y806700D01*
X6270000Y740000D01*
X6266700Y680000D01*
X6273300Y620000D01*
X6283300Y580000D01*
X6303300Y540000D01*
X6326700Y513300D01*
X6350000Y500000D01*
X6373300D01*
X6396700Y513300D01*
X6416700Y533300D01*
X6433300Y560000D01*
G01X6566700Y500000D02*
X6650000Y900000D01*
X6733300Y500000D01*
G01X6703300Y640000D02*
X6596700D01*
G01X6876700Y500000D02*
Y900000D01*
X6943300D01*
X6970000Y880000D01*
X6990000Y853300D01*
X7006700Y813300D01*
X7020000Y766700D01*
X7023300Y700000D01*
X7020000Y633300D01*
X7006700Y586700D01*
X6990000Y546700D01*
X6970000Y520000D01*
X6943300Y500000D01*
X6876700D01*
G54D11*
G01X5194600Y2730500D02*
X5214900Y2628600D01*
G01D02*
X5272500Y2542000D01*
G01D02*
X5359100Y2484400D01*
G01D02*
X5461000Y2464100D01*
G01D02*
X5562900Y2484400D01*
G01D02*
X5649500Y2542000D01*
G01D02*
X5707100Y2628600D01*
G01X5649500Y2919000D02*
X5272500D01*
G01D02*
X5214900Y2832400D01*
G01D02*
X5194600Y2730500D01*
G01X5707100Y2832400D02*
X5649500Y2919000D01*
G01D02*
X5647400Y2921000D01*
G01X5707100Y2628600D02*
X5727400Y2730500D01*
G01D02*
X5707100Y2832400D01*
G54D12*
G01X373000Y3127000D02*
X627000D01*
Y2111000D01*
X373000D01*
Y3127000D01*
G01X678100Y3045400D02*
X686100Y3032700D01*
X695800Y3024200D01*
X707000Y3020000D01*
X719900Y3024200D01*
X729600Y3032700D01*
X739200Y3045400D01*
X742400Y3062300D01*
Y3147000D01*
G01X839700Y3020000D02*
Y3147000D01*
X820400Y3121600D01*
G01Y3020000D02*
X859000D01*
G01X373000Y4627000D02*
X627000D01*
Y3865000D01*
X373000D01*
Y4627000D01*
G01X651100Y4525700D02*
X656000Y4517900D01*
X661800Y4512600D01*
X668700Y4510000D01*
X676400Y4512600D01*
X682300Y4517900D01*
X688100Y4525700D01*
X690100Y4536200D01*
Y4588700D01*
G01X727900Y4525700D02*
X733700Y4516600D01*
X741500Y4511300D01*
X750300Y4510000D01*
X758100Y4511300D01*
X765800Y4517900D01*
X770700Y4525700D01*
X771700Y4533600D01*
X769700Y4542800D01*
X762900Y4549300D01*
X756100Y4552000D01*
X747400D01*
G01X756100D02*
X762000Y4555900D01*
X766800Y4562500D01*
X768800Y4570300D01*
X766800Y4578200D01*
X762000Y4584800D01*
X753200Y4588700D01*
X744400Y4587400D01*
X735700Y4582100D01*
G01X1625600Y2857500D02*
X1778000D01*
X1841500Y2794000D01*
X1968500D01*
X2032000Y2857500D01*
X2184400D01*
Y1841500D01*
X1625600D01*
Y2857500D01*
G01X1689100Y4381500D02*
X1841500D01*
X1905000Y4318000D01*
X2032000D01*
X2095500Y4381500D01*
X2247900D01*
Y3365500D01*
X1689100D01*
Y4381500D01*
G01X2429700Y2712700D02*
Y2621700D01*
X2436100Y2602600D01*
X2449000Y2589900D01*
X2465000Y2585700D01*
X2481100Y2589900D01*
X2494000Y2602600D01*
X2500400Y2621700D01*
Y2712700D01*
G01X2594500Y2585700D02*
Y2712700D01*
X2575200Y2687300D01*
G01Y2585700D02*
X2613800D01*
G01X2493200Y4236700D02*
Y4145700D01*
X2499600Y4126600D01*
X2512500Y4113900D01*
X2528500Y4109700D01*
X2544600Y4113900D01*
X2557500Y4126600D01*
X2563900Y4145700D01*
Y4236700D01*
G01X2627500Y4162600D02*
X2638700Y4177400D01*
X2648400Y4185900D01*
X2661300Y4190100D01*
X2672500Y4185900D01*
X2680600Y4177400D01*
X2687000Y4164700D01*
X2688600Y4149900D01*
X2687000Y4137200D01*
X2680600Y4124500D01*
X2670900Y4113900D01*
X2659700Y4109700D01*
X2646800Y4113900D01*
X2635500Y4126600D01*
X2629100Y4145700D01*
X2627500Y4166800D01*
X2630700Y4194400D01*
X2635500Y4209200D01*
X2643600Y4224000D01*
X2654800Y4234600D01*
X2666100Y4236700D01*
X2677400Y4232500D01*
X2685400Y4221900D01*
G01X3429000Y1841500D02*
G03I-254000J0D01*
G01X3784600Y1143000D02*
X3073400D01*
Y1397000D01*
X3784600D01*
Y1143000D01*
G01X3073400Y2857500D02*
X3784600D01*
Y2603500D01*
X3073400D01*
Y2857500D01*
G01Y3619500D02*
X3784600D01*
Y3365500D01*
X3073400D01*
Y3619500D01*
G01X3429000Y3873500D02*
G03I-254000J0D01*
G01X3555600Y1901400D02*
X3546000Y1907800D01*
X3534700Y1912000D01*
X3521900D01*
X3507400Y1905600D01*
X3496100Y1895100D01*
X3488100Y1882400D01*
X3481600Y1861200D01*
X3480000Y1842100D01*
X3483300Y1823100D01*
X3488100Y1810400D01*
X3497700Y1797700D01*
X3509000Y1789200D01*
X3520200Y1785000D01*
X3531500D01*
X3542800Y1789200D01*
X3552400Y1795600D01*
X3560500Y1804000D01*
G01X3649700Y1785000D02*
Y1912000D01*
X3630400Y1886600D01*
G01Y1785000D02*
X3669000D01*
G01X3896100Y1425000D02*
Y1503700D01*
X3920500D01*
X3928300Y1499800D01*
X3933100Y1494500D01*
X3935100Y1484000D01*
X3933100Y1473500D01*
X3927300Y1467000D01*
X3920500Y1463000D01*
X3896100D01*
G01X3920500D02*
X3935100Y1425000D01*
G01X3975800Y1490600D02*
X3981600Y1498500D01*
X3988500Y1502400D01*
X3996200Y1503700D01*
X4006000Y1501100D01*
X4012800Y1494500D01*
X4014700Y1486600D01*
X4013800Y1478800D01*
X4009900Y1472200D01*
X3990400Y1459100D01*
X3981600Y1449900D01*
X3975800Y1436800D01*
X3973900Y1425000D01*
X4014700D01*
G01X4572000Y2095500D02*
G03I-254000J0D01*
G01X3687600Y2921000D02*
Y2999700D01*
X3712000D01*
X3719800Y2995800D01*
X3724600Y2990500D01*
X3726600Y2980000D01*
X3724600Y2969500D01*
X3718800Y2963000D01*
X3712000Y2959000D01*
X3687600D01*
G01X3712000D02*
X3726600Y2921000D01*
G01X3785800D02*
Y2999700D01*
X3774100Y2984000D01*
G01Y2921000D02*
X3797500D01*
G01X3526600Y4180400D02*
X3517000Y4186800D01*
X3505700Y4191000D01*
X3492900D01*
X3478400Y4184600D01*
X3467100Y4174100D01*
X3459100Y4161400D01*
X3452600Y4140200D01*
X3451000Y4121100D01*
X3454300Y4102100D01*
X3459100Y4089400D01*
X3468700Y4076700D01*
X3480000Y4068200D01*
X3491200Y4064000D01*
X3502500D01*
X3513800Y4068200D01*
X3523400Y4074600D01*
X3531500Y4083000D01*
G01X3585400Y4089400D02*
X3595000Y4074600D01*
X3607900Y4066100D01*
X3622400Y4064000D01*
X3635200Y4066100D01*
X3648100Y4076700D01*
X3656100Y4089400D01*
X3657700Y4102100D01*
X3654500Y4116900D01*
X3643300Y4127500D01*
X3632000Y4131700D01*
X3617500D01*
G01X3632000D02*
X3641700Y4138100D01*
X3649700Y4148700D01*
X3652900Y4161400D01*
X3649700Y4174100D01*
X3641700Y4184600D01*
X3627200Y4191000D01*
X3612700Y4188900D01*
X3598200Y4180400D01*
G01X3878100Y3556000D02*
Y3634700D01*
X3902500D01*
X3910300Y3630800D01*
X3915100Y3625500D01*
X3917100Y3615000D01*
X3915100Y3604500D01*
X3909300Y3598000D01*
X3902500Y3594000D01*
X3878100D01*
G01X3902500D02*
X3917100Y3556000D01*
G01X3954900Y3567800D02*
X3960700Y3561200D01*
X3967500Y3557300D01*
X3976300Y3556000D01*
X3985100Y3558600D01*
X3991900Y3563900D01*
X3996700Y3573100D01*
X3997700Y3583500D01*
X3995800Y3594000D01*
X3990900Y3600600D01*
X3984100Y3605800D01*
X3977300Y3607200D01*
X3970500Y3605800D01*
X3961700Y3600600D01*
X3964600Y3634700D01*
X3990900D01*
G01X4318000Y3111500D02*
X4953000D01*
Y2603500D01*
X4318000D01*
Y3111500D01*
G01X4690600Y2041400D02*
X4681000Y2047800D01*
X4669700Y2052000D01*
X4656900D01*
X4642400Y2045600D01*
X4631100Y2035100D01*
X4623100Y2022400D01*
X4616600Y2001200D01*
X4615000Y1982100D01*
X4618300Y1963100D01*
X4623100Y1950400D01*
X4632700Y1937700D01*
X4644000Y1929200D01*
X4655200Y1925000D01*
X4666500D01*
X4677800Y1929200D01*
X4687400Y1935600D01*
X4695500Y1944000D01*
G01X4754200Y2030800D02*
X4763800Y2043500D01*
X4775100Y2049900D01*
X4788000Y2052000D01*
X4804100Y2047800D01*
X4815300Y2037200D01*
X4818500Y2024500D01*
X4816900Y2011800D01*
X4810500Y2001200D01*
X4778300Y1980000D01*
X4763800Y1965200D01*
X4754200Y1944000D01*
X4751000Y1925000D01*
X4818500D01*
G01X4211700Y3302000D02*
X4251900Y3175000D01*
X4292200Y3302000D01*
G01X4349300Y3175000D02*
Y3302000D01*
X4389500D01*
X4402400Y3295600D01*
X4410400Y3287200D01*
X4413600Y3270200D01*
X4410400Y3253300D01*
X4400800Y3242700D01*
X4389500Y3236400D01*
X4349300D01*
G01X4389500D02*
X4413600Y3175000D01*
G01X4510900D02*
Y3302000D01*
X4491600Y3276600D01*
G01Y3175000D02*
X4530200D01*
G01X5435600Y3365500D02*
X4724400D01*
Y3619500D01*
X5435600D01*
Y3365500D01*
G01X4470400Y4127500D02*
X5181600D01*
Y3873500D01*
X4470400D01*
Y4127500D01*
G01X5613400Y2349500D02*
X6324600D01*
Y2095500D01*
X5613400D01*
Y2349500D01*
G01X5402100Y3683000D02*
Y3761700D01*
X5426500D01*
X5434300Y3757800D01*
X5439100Y3752500D01*
X5441100Y3742000D01*
X5439100Y3731500D01*
X5433300Y3725000D01*
X5426500Y3721000D01*
X5402100D01*
G01X5426500D02*
X5441100Y3683000D01*
G01X5481800Y3715800D02*
X5488600Y3725000D01*
X5494500Y3730200D01*
X5502200Y3732800D01*
X5509100Y3730200D01*
X5513900Y3725000D01*
X5517800Y3717100D01*
X5518800Y3707900D01*
X5517800Y3700100D01*
X5513900Y3692200D01*
X5508100Y3685600D01*
X5501300Y3683000D01*
X5493500Y3685600D01*
X5486700Y3693500D01*
X5482800Y3705300D01*
X5481800Y3718400D01*
X5483800Y3735500D01*
X5486700Y3744600D01*
X5491500Y3753800D01*
X5498400Y3760400D01*
X5505200Y3761700D01*
X5512000Y3759100D01*
X5516800Y3752500D01*
G01X5211600Y4127500D02*
Y4206200D01*
X5236000D01*
X5243800Y4202300D01*
X5248600Y4197000D01*
X5250600Y4186500D01*
X5248600Y4176000D01*
X5242800Y4169500D01*
X5236000Y4165500D01*
X5211600D01*
G01X5236000D02*
X5250600Y4127500D01*
G01X5307900D02*
X5309800Y4144600D01*
X5312700Y4159000D01*
X5316600Y4172100D01*
X5321500Y4186500D01*
X5329300Y4206200D01*
X5290300D01*
G01X5486400Y5588000D02*
X6197600D01*
Y5334000D01*
X5486400D01*
Y5588000D01*
G01X6164100Y1968500D02*
Y2047200D01*
X6188500D01*
X6196300Y2043300D01*
X6201100Y2038000D01*
X6203100Y2027500D01*
X6201100Y2017000D01*
X6195300Y2010500D01*
X6188500Y2006500D01*
X6164100D01*
G01X6188500D02*
X6203100Y1968500D01*
G01X6240900Y1984200D02*
X6246700Y1975100D01*
X6254500Y1969800D01*
X6263300Y1968500D01*
X6271100Y1969800D01*
X6278800Y1976400D01*
X6283700Y1984200D01*
X6284700Y1992100D01*
X6282700Y2001300D01*
X6275900Y2007800D01*
X6269100Y2010500D01*
X6260400D01*
G01X6269100D02*
X6275000Y2014400D01*
X6279800Y2021000D01*
X6281800Y2028800D01*
X6279800Y2036700D01*
X6275000Y2043300D01*
X6266200Y2047200D01*
X6257400Y2045900D01*
X6248700Y2040600D01*
G01X6388100Y4381500D02*
X6540500D01*
X6604000Y4318000D01*
X6731000D01*
X6794500Y4381500D01*
X6946900D01*
Y3365500D01*
X6388100D01*
Y4381500D01*
G01X5849600Y2857500D02*
X5830600Y2860700D01*
X5814100Y2873400D01*
X5799800Y2892400D01*
X5790300Y2914600D01*
X5785600Y2940000D01*
Y2965500D01*
X5790300Y2990900D01*
X5799800Y3013100D01*
X5814100Y3032100D01*
X5830600Y3044800D01*
X5849600Y3048000D01*
X5868600Y3044800D01*
X5885100Y3032100D01*
X5899400Y3013100D01*
X5908900Y2990900D01*
X5913600Y2965500D01*
Y2940000D01*
X5908900Y2914600D01*
X5899400Y2892400D01*
X5885100Y2873400D01*
X5868600Y2860700D01*
X5849600Y2857500D01*
G01X5868600Y2908300D02*
X5897000Y2857500D01*
G01X6040100D02*
Y3048000D01*
X6011700Y3009900D01*
G01Y2857500D02*
X6068500D01*
G01X6037100Y5207000D02*
Y5285700D01*
X6061500D01*
X6069300Y5281800D01*
X6074100Y5276500D01*
X6076100Y5266000D01*
X6074100Y5255500D01*
X6068300Y5249000D01*
X6061500Y5245000D01*
X6037100D01*
G01X6061500D02*
X6076100Y5207000D01*
G01X6135300D02*
X6142100Y5208300D01*
X6149900Y5212200D01*
X6154800Y5218800D01*
X6156700Y5228000D01*
X6154800Y5237200D01*
X6148900Y5245000D01*
X6140200Y5249000D01*
X6130400D01*
X6124600Y5251600D01*
X6119700Y5258200D01*
X6117800Y5267300D01*
X6120700Y5276500D01*
X6127500Y5283100D01*
X6135300Y5285700D01*
X6143100Y5283100D01*
X6149900Y5276500D01*
X6152800Y5267300D01*
X6150900Y5258200D01*
X6146000Y5251600D01*
X6140200Y5249000D01*
X6130400D01*
X6121700Y5245000D01*
X6115800Y5237200D01*
X6113900Y5228000D01*
X6115800Y5218800D01*
X6120700Y5212200D01*
X6128500Y5208300D01*
X6135300Y5207000D01*
G01X6629400Y1206500D02*
X7340600D01*
Y952500D01*
X6629400D01*
Y1206500D01*
G01X6735600Y1270000D02*
Y1348700D01*
X6760000D01*
X6767800Y1344800D01*
X6772600Y1339500D01*
X6774600Y1329000D01*
X6772600Y1318500D01*
X6766800Y1312000D01*
X6760000Y1308000D01*
X6735600D01*
G01X6760000D02*
X6774600Y1270000D01*
G01X6845500D02*
Y1348700D01*
X6809500Y1292300D01*
X6858100D01*
G01X6757900Y4572000D02*
Y4481000D01*
X6764300Y4461900D01*
X6777200Y4449200D01*
X6793200Y4445000D01*
X6809300Y4449200D01*
X6822200Y4461900D01*
X6828600Y4481000D01*
Y4572000D01*
G01X6887400Y4464000D02*
X6897000Y4453500D01*
X6908300Y4447100D01*
X6922700Y4445000D01*
X6937200Y4449200D01*
X6948500Y4457700D01*
X6956500Y4472500D01*
X6958100Y4489400D01*
X6954900Y4506400D01*
X6946900Y4517000D01*
X6935600Y4525400D01*
X6924400Y4527500D01*
X6913100Y4525400D01*
X6898600Y4517000D01*
X6903400Y4572000D01*
X6946900D01*
G01X7810500Y1460500D02*
X8445500D01*
Y952500D01*
X7810500D01*
Y1460500D01*
G01X7213600Y2603500D02*
X7366000D01*
X7429500Y2540000D01*
X7556500D01*
X7620000Y2603500D01*
X7772400D01*
Y1587500D01*
X7213600D01*
Y2603500D01*
G01X7583400Y2794000D02*
Y2703000D01*
X7589800Y2683900D01*
X7602700Y2671200D01*
X7618700Y2667000D01*
X7634800Y2671200D01*
X7647700Y2683900D01*
X7654100Y2703000D01*
Y2794000D01*
G01X7717700Y2772800D02*
X7727300Y2785500D01*
X7738600Y2791900D01*
X7751500Y2794000D01*
X7767600Y2789800D01*
X7778800Y2779200D01*
X7782000Y2766500D01*
X7780400Y2753800D01*
X7774000Y2743200D01*
X7741800Y2722000D01*
X7727300Y2707200D01*
X7717700Y2686000D01*
X7714500Y2667000D01*
X7782000D01*
G01X8148700Y1651000D02*
X8188900Y1524000D01*
X8229200Y1651000D01*
G01X8286300Y1524000D02*
Y1651000D01*
X8326500D01*
X8339400Y1644600D01*
X8347400Y1636200D01*
X8350600Y1619200D01*
X8347400Y1602300D01*
X8337800Y1591700D01*
X8326500Y1585400D01*
X8286300D01*
G01X8326500D02*
X8350600Y1524000D01*
G01X8417400Y1629800D02*
X8427000Y1642500D01*
X8438300Y1648900D01*
X8451200Y1651000D01*
X8467300Y1646800D01*
X8478500Y1636200D01*
X8481700Y1623500D01*
X8480100Y1610800D01*
X8473700Y1600200D01*
X8441500Y1579000D01*
X8427000Y1564200D01*
X8417400Y1543000D01*
X8414200Y1524000D01*
X8481700D01*
G01X8102600Y4127500D02*
X8255000D01*
X8318500Y4064000D01*
X8445500D01*
X8509000Y4127500D01*
X8661400D01*
Y3111500D01*
X8102600D01*
Y4127500D01*
G01X8472400Y4318000D02*
Y4227000D01*
X8478800Y4207900D01*
X8491700Y4195200D01*
X8507700Y4191000D01*
X8523800Y4195200D01*
X8536700Y4207900D01*
X8543100Y4227000D01*
Y4318000D01*
G01X8634000Y4191000D02*
X8637200Y4218500D01*
X8642100Y4241800D01*
X8648500Y4263000D01*
X8656600Y4286200D01*
X8669400Y4318000D01*
X8605100D01*
G01X8514400Y4889500D02*
Y4953000D01*
X8527900D01*
X8533400Y4949800D01*
X8537400Y4945600D01*
X8540800Y4939200D01*
X8543500Y4931800D01*
X8544200Y4921200D01*
X8543500Y4910700D01*
X8540800Y4903300D01*
X8537400Y4896900D01*
X8533400Y4892700D01*
X8527900Y4889500D01*
X8514400D01*
G01X8585100D02*
Y4953000D01*
X8577000Y4940300D01*
G01Y4889500D02*
X8593200D01*
G01X8636000D02*
Y5372100D01*
X8890000D01*
Y4889500D01*
X8636000D01*
G01Y4978400D02*
X8890000D01*
G01X8636000Y4965700D02*
X8890000D01*
G01X9275600Y2682700D02*
X9280500Y2674900D01*
X9286300Y2669600D01*
X9293200Y2667000D01*
X9300900Y2669600D01*
X9306800Y2674900D01*
X9312600Y2682700D01*
X9314600Y2693200D01*
Y2745700D01*
G01X9355300Y2732600D02*
X9361100Y2740500D01*
X9368000Y2744400D01*
X9375700Y2745700D01*
X9385500Y2743100D01*
X9392300Y2736500D01*
X9394200Y2728600D01*
X9393300Y2720800D01*
X9389400Y2714200D01*
X9369900Y2701100D01*
X9361100Y2691900D01*
X9355300Y2678800D01*
X9353400Y2667000D01*
X9394200D01*
G01X9588500Y2794000D02*
X9334500D01*
Y3302000D01*
X9588500D01*
Y2794000D01*
G01X9148600Y4889500D02*
Y4968200D01*
X9173000D01*
X9180800Y4964300D01*
X9185600Y4959000D01*
X9187600Y4948500D01*
X9185600Y4938000D01*
X9179800Y4931500D01*
X9173000Y4927500D01*
X9148600D01*
G01X9173000D02*
X9187600Y4889500D01*
G01X9230300Y4898700D02*
X9237100Y4892100D01*
X9244900Y4889500D01*
X9252600Y4892100D01*
X9259500Y4900000D01*
X9264300Y4911800D01*
X9266300Y4923600D01*
Y4938000D01*
X9264300Y4949800D01*
X9259500Y4960300D01*
X9253600Y4965600D01*
X9246800Y4968200D01*
X9239000Y4965600D01*
X9233200Y4960300D01*
X9229300Y4952500D01*
X9227300Y4942000D01*
X9229300Y4932800D01*
X9234100Y4923600D01*
X9240000Y4918400D01*
X9246800Y4917000D01*
X9254600Y4919700D01*
X9260400Y4926200D01*
X9266300Y4938000D01*
G01X9334500Y4787900D02*
Y5499100D01*
X9588500D01*
Y4787900D01*
X9334500D01*
M02*
