G04 ================== begin FILE IDENTIFICATION RECORD ==================*
G04 Layout Name:  MODULATION_CHOISUWON1.brd*
G04 Film Name:    soldt*
G04 File Format:  Gerber RS274X*
G04 File Origin:  Cadence Allegro 17.2-P019*
G04 Origin Date:  Tue Jul 30 16:00:33 2019*
G04 *
G04 Layer:  VIA CLASS/SOLDERMASK_TOP*
G04 Layer:  PIN/SOLDERMASK_TOP*
G04 Layer:  PACKAGE GEOMETRY/SOLDERMASK_TOP*
G04 Layer:  BOARD GEOMETRY/SOLDERMASK_TOP*
G04 *
G04 Offset:    (0.000 0.000)*
G04 Mirror:    No*
G04 Mode:      Positive*
G04 Rotation:  0*
G04 FullContactRelief:  No*
G04 UndefLineWidth:     0.000*
G04 ================== end FILE IDENTIFICATION RECORD ====================*
%FSLAX25Y25*MOMM*%
%IR0*IPPOS*OFA0.00000B0.00000*MIA0B0*SFA1.00000B1.00000*%
%ADD13C,2.032*%
%ADD11C,1.905*%
%ADD10C,3.683*%
%ADD12R,1.905X1.905*%
%ADD15O,1.016X1.524*%
%ADD14R,1.016X1.524*%
%LPD*%
G75*
G54D10*
X500000Y500000D03*
Y6500000D03*
X9500000Y500000D03*
Y6500000D03*
G54D11*
X500000Y2238000D03*
Y2492000D03*
Y2746000D03*
Y3000000D03*
Y3992000D03*
Y4246000D03*
Y4500000D03*
X1524000Y1968500D03*
Y2222500D03*
Y2476500D03*
X1587500Y3492500D03*
Y3746500D03*
Y4000500D03*
X2286000Y1968500D03*
Y2222500D03*
Y2476500D03*
Y2730500D03*
X2349500Y3492500D03*
Y3746500D03*
Y4000500D03*
Y4254500D03*
X3175000Y1968500D03*
Y1714500D03*
Y3746500D03*
Y4000500D03*
X4318000Y1968500D03*
X4381500Y2730500D03*
X4889500D03*
X4318000Y2222500D03*
X4635500Y2984500D03*
X6286500Y3492500D03*
Y3746500D03*
Y4000500D03*
X7112000Y1714500D03*
Y1968500D03*
Y2222500D03*
X7048500Y3492500D03*
Y3746500D03*
Y4000500D03*
Y4254500D03*
X7874000Y1079500D03*
Y1714500D03*
Y1968500D03*
Y2222500D03*
Y2476500D03*
X8001000Y3238500D03*
Y3492500D03*
Y3746500D03*
X8382000Y1079500D03*
X8128000Y1333500D03*
X8763000Y3238500D03*
Y3492500D03*
Y3746500D03*
Y4000500D03*
Y5626100D03*
X9461500Y3175000D03*
Y2921000D03*
G54D12*
X1524000Y2730500D03*
X1587500Y4254500D03*
X6286500D03*
X7112000Y2476500D03*
X8001000Y4000500D03*
X8763000Y4635500D03*
G54D13*
X2921000Y1270000D03*
Y2730500D03*
Y3492500D03*
X3937000Y1270000D03*
Y2730500D03*
Y3492500D03*
X4572000D03*
X4318000Y4000500D03*
X5461000Y2222500D03*
X5588000Y3492500D03*
X5334000Y4000500D03*
Y5461000D03*
X6477000Y1079500D03*
Y2222500D03*
X6350000Y5461000D03*
X7493000Y1079500D03*
X9461500Y4635500D03*
Y5651500D03*
G54D14*
X5588000Y2730500D03*
G54D15*
X5461000D03*
X5334000D03*
M02*
