G04 ================== begin FILE IDENTIFICATION RECORD ==================*
G04 Layout Name:  MODULATION_CHOISUWON1.brd*
G04 Film Name:    TOP*
G04 File Format:  Gerber RS274X*
G04 File Origin:  Cadence Allegro 17.2-P019*
G04 Origin Date:  Tue Jul 30 16:00:33 2019*
G04 *
G04 Layer:  ETCH/TOP*
G04 Layer:  PIN/TOP*
G04 Layer:  VIA CLASS/TOP*
G04 *
G04 Offset:    (0.000 0.000)*
G04 Mirror:    No*
G04 Mode:      Positive*
G04 Rotation:  0*
G04 FullContactRelief:  No*
G04 UndefLineWidth:     0.000*
G04 ================== end FILE IDENTIFICATION RECORD ====================*
%FSLAX25Y25*MOMM*%
%IR0*IPPOS*OFA0.00000B0.00000*MIA0B0*SFA1.00000B1.00000*%
%ADD11C,1.524*%
%ADD13C,1.651*%
%ADD12R,1.524X1.524*%
%ADD15O,1.016X1.524*%
%ADD14R,1.016X1.524*%
%ADD10C,.635*%
%ADD16C,1.*%
%ADD17C,.5*%
G75*
%LPD*%
G75*
G54D10*
X500000Y500000D03*
Y6500000D03*
X9500000Y500000D03*
Y6500000D03*
G54D11*
X500000Y2238000D03*
Y2492000D03*
Y2746000D03*
Y3000000D03*
Y3992000D03*
Y4246000D03*
Y4500000D03*
X1524000Y1968500D03*
Y2222500D03*
Y2476500D03*
X1587500Y3492500D03*
Y3746500D03*
Y4000500D03*
X2286000Y1968500D03*
Y2222500D03*
Y2476500D03*
Y2730500D03*
X2349500Y3492500D03*
Y3746500D03*
Y4000500D03*
Y4254500D03*
X3175000Y1968500D03*
Y1714500D03*
Y3746500D03*
Y4000500D03*
X4318000Y1968500D03*
X4381500Y2730500D03*
X4889500D03*
X4318000Y2222500D03*
X4635500Y2984500D03*
X6286500Y3492500D03*
Y3746500D03*
Y4000500D03*
X7112000Y1714500D03*
Y1968500D03*
Y2222500D03*
X7048500Y3492500D03*
Y3746500D03*
Y4000500D03*
Y4254500D03*
X7874000Y1079500D03*
Y1714500D03*
Y1968500D03*
Y2222500D03*
Y2476500D03*
X8001000Y3238500D03*
Y3492500D03*
Y3746500D03*
X8382000Y1079500D03*
X8128000Y1333500D03*
X8763000Y3238500D03*
Y3492500D03*
Y3746500D03*
Y4000500D03*
Y5626100D03*
X9461500Y3175000D03*
Y2921000D03*
G54D12*
X1524000Y2730500D03*
X1587500Y4254500D03*
X6286500D03*
X7112000Y2476500D03*
X8001000Y4000500D03*
X8763000Y4635500D03*
G54D13*
X2921000Y1270000D03*
Y2730500D03*
Y3492500D03*
X3937000Y1270000D03*
Y2730500D03*
Y3492500D03*
X4572000D03*
X4318000Y4000500D03*
X5461000Y2222500D03*
X5588000Y3492500D03*
X5334000Y4000500D03*
Y5461000D03*
X6477000Y1079500D03*
Y2222500D03*
X6350000Y5461000D03*
X7493000Y1079500D03*
X9461500Y4635500D03*
Y5651500D03*
G54D14*
X5588000Y2730500D03*
G54D15*
X5461000D03*
X5334000D03*
G54D16*
G01X500000Y2492000D02*
X611500Y2603500D01*
X1397000D01*
X1524000Y2730500D01*
G01X2286000D02*
X2095500Y2921000D01*
X675000D01*
X500000Y2746000D01*
G01X6286500Y3492500D02*
X6096000Y3302000D01*
X1778000D01*
X1587500Y3492500D01*
G01Y4254500D02*
X2032000Y4699000D01*
X7040100D01*
X7413800Y4325300D01*
Y4183700D01*
G01X2286000Y2730500D02*
X2476500Y2921000D01*
X2730500D01*
X2921000Y2730500D01*
G01X4381500D02*
X4191000Y2921000D01*
X3111500D01*
X2921000Y2730500D01*
G01X4381500D02*
X4635500Y2984500D01*
G01X8001000Y3238500D02*
X6540500D01*
X6286500Y3492500D01*
G01X8001000Y3238500D02*
Y3048000D01*
X7366000Y2413000D01*
Y1968500D01*
X7112000Y1714500D01*
G01X7413800Y4183700D02*
X7230600Y4000500D01*
X7048500D01*
G01X8763000Y3746500D02*
X8914600D01*
X9080600Y3912500D01*
Y4063900D01*
X8960800Y4183700D01*
X7413800D01*
G54D17*
G01X500000Y4500000D02*
X1126500Y3873500D01*
X1460500D01*
X1587500Y3746500D01*
G01X2286000Y1968500D02*
X2413000Y2095500D01*
X3048000D01*
X3175000Y1968500D01*
G01X2286000Y2222500D02*
X2413000Y2349500D01*
G01D02*
X4191000D01*
X4318000Y2222500D01*
G01X2286000Y2476500D02*
X2413000Y2349500D01*
G01X3175000Y3746500D02*
X3048000Y3873500D01*
X2476500D01*
X2349500Y3746500D01*
G01Y3492500D02*
X2476500Y3619500D01*
X2794000D01*
X2921000Y3492500D01*
G01X3937000Y2730500D02*
X4127500Y2540000D01*
X5168900D01*
X5334000Y2705100D01*
Y2730500D01*
G01X3937000Y3492500D02*
X4022200Y3577700D01*
X4486800D01*
X4572000Y3492500D01*
G01X4318000Y2222500D02*
X4445000Y2349500D01*
X5334000D01*
X5461000Y2222500D01*
G01X4889500Y2730500D02*
X5143500Y2984500D01*
X5461000D01*
X5588000Y2857500D01*
Y2730500D01*
G01X6286500Y3746500D02*
X4699000D01*
X4572000Y3619500D01*
Y3492500D01*
G01X6286500Y4000500D02*
X6159500Y4127500D01*
X5461000D01*
X5334000Y4000500D01*
G01X6477000Y2222500D02*
X6562200Y2307700D01*
X7026800D01*
X7112000Y2222500D01*
G01X7048500Y3746500D02*
X7175500Y3873500D01*
X7874000D01*
X8001000Y3746500D01*
G01X8382000Y1079500D02*
X8191500Y889000D01*
X7683500D01*
X7493000Y1079500D01*
G01X8763000Y5626100D02*
X8873600Y5736700D01*
X9376300D01*
X9461500Y5651500D01*
M02*
